<svg version="1" xmlns="http://www.w3.org/2000/svg" width="933.333" height="933.333" viewBox="0 0 700.000000 700.000000"><path d="M323 1.6c-63.9 5.7-120.9 26-172 61.2C88.8 105.7 41.6 168.6 18 240 5.4 278 .5 309.6.6 351.5c0 34.9 3.2 59 11.9 91 19.4 71.1 60.2 133.2 118.6 180.6 36.4 29.4 80.3 51.8 126.4 64.4 32 8.7 56.1 11.9 91 11.9 26.5.1 37.7-.8 60-4.5 92.1-15.5 175.4-68.6 228.7-145.9 32-46.4 51.3-96.6 59.5-155 2.5-17.9 2.5-69.2 0-87-9.6-67.6-33.2-123.5-74.1-175-12.7-16-38.6-41.9-54.6-54.6-51.4-40.8-108.1-64.8-174.5-73.9C382 1.9 334.2.6 323 1.6zm162.2 167.2c7.7 3.8 13 9.2 16.7 17.1 2.2 4.8 2.6 6.9 2.6 15.1 0 8.5-.3 10.1-3 15.3-6.2 12.4-18.3 19.8-32 19.8-10.7 0-17.5-2.9-25.1-10.5-8.2-8.4-10.7-14.8-10.2-26.6.3-9.3 2.6-15.5 8.1-21.7 10.8-12.3 28.2-15.8 42.9-8.5zm-120.9 15.6c1.8.7 13.5 8.4 26 17.1l22.8 15.7-4.8 3c-2.6 1.6-10.9 9.1-18.4 16.5l-13.7 13.5-7.3-5.4c-4.1-3-8-5.8-8.7-6.2-1-.6-9.3 7.1-28.6 26.2-19.5 19.5-28.4 27.7-31.6 29.1-5.3 2.4-14.5 2.8-19.3.8-8.5-3.6-14.7-12.9-14.7-22.2 0-9.8 1.8-12.1 40.1-50.2 20.7-20.5 37.1-36 39.4-37.2 4.7-2.4 13.9-2.8 18.8-.7zM248 202.7c7.5 4.4 7.1 16.2-.7 20.4-3.8 2.1-67.8 2.1-71.6 0-7.8-4.1-8.2-15.8-.9-20.4 2.4-1.4 6.7-1.6 36.5-1.7 29.9 0 34.2.2 36.7 1.7zm197.5 37.5c5.2 3.3 8 6.5 10 11 1.2 3.1 1.5 8.6 1.5 30.2v26.5l39.3.3c33.6.3 39.7.5 42.8 1.9 18 8.2 19.9 32.2 3.5 42.4l-4.9 3-53.9.3c-34.1.1-55.3-.1-57.7-.8-4.9-1.3-11.9-7.4-14.2-12.4-1.4-3.1-1.9-6.5-1.9-13.9 0-5.3-.3-9.7-.8-9.7-.4 0-9 8.3-19.2 18.5L371.5 356l28.7 28.7c20.9 21 29.2 30 30.7 33.3 2.5 5.5 2.7 14.5.6 19.8-2 4.7-89.2 92.4-94.8 95.3-15.8 8.2-34.7-3.3-34.7-21.1 0-10.1 1.2-11.6 38.8-49.3l34.7-34.7-28.7-28.8c-30.5-30.5-32.7-33.4-32.8-42.2 0-10.7-1.9-8.4 53.8-64.4 33.8-33.9 53.1-52.5 55.7-53.7 5.8-2.8 16.5-2.2 22 1.3zm-221.6 10.3c1.6.8 3.6 3.1 4.6 5.1 3.7 7.8-1.4 15.8-10.8 16.9-2.8.4-18.2.5-34.2.3-26.5-.3-29.3-.5-32.2-2.2-7.5-4.6-7.8-15.4-.5-19.9 2.4-1.4 6.7-1.6 36.5-1.7 27.7 0 34.3.3 36.6 1.5zm24.2 47.8c7.2 4.8 7.1 15.8-.1 20-2.5 1.5-6.8 1.7-36.7 1.7-30.1 0-34.1-.2-36.3-1.7-4.3-2.9-6.3-7.6-5.3-12.5.7-3.7 5.5-8.5 9.1-9.1 1.5-.3 17.1-.4 34.7-.3 28.7.1 32.3.3 34.6 1.9zm47.7 80.6c1.7 3.7 6 9.1 13.5 16.8l11.1 11.4-62 62.1C192.2 535.5 191.7 536 182 536c-5.4 0-13.4-3.6-17.2-7.6-3.8-4.1-6.8-11.2-6.8-16.4 0-9.5 0-9.4 68.8-78.3 59.1-59.1 64.8-64.5 65.6-62.5.5 1.3 2 4.7 3.4 7.7z"/></svg>